<svg width="50" zoomAndPan="magnify" viewBox="0 0 375 374.999991" height="500" preserveAspectRatio="xMidYMid meet" version="1.0"><defs><g/></defs><g fill="#faf6f5" fill-opacity="1"><g transform="translate(39.486857, 326.120223)"><g><path d="M 264.398438 -280 L 31.601562 -280 L 31.601562 -112.398438 C 31.601562 -109.597656 32 -82.800781 45.601562 -55.601562 C 64.800781 -17.199219 101.199219 4 148 4 C 194.796875 4 231.199219 -17.199219 250.398438 -55.601562 C 264 -82.800781 264.398438 -109.597656 264.398438 -112.398438 Z M 208 -75.199219 C 196.796875 -53.199219 177.199219 -42.800781 148 -42.800781 C 119.199219 -42.800781 99.597656 -53.199219 88 -75.199219 C 78.398438 -93.199219 78 -112.398438 78 -112.398438 L 78 -233.199219 L 218 -233.199219 L 218 -112.800781 C 218 -112.398438 217.597656 -93.199219 208 -75.199219 Z M 208 -75.199219 "/></g></g></g></svg>