<svg id="svg" version="1.1" xmlns="http://www.w3.org/2000/svg" xmlns:xlink="http://www.w3.org/1999/xlink" width="400" height="400" viewBox="0, 0, 400,400"><g id="svgg"><path id="path0" d="M117.000 83.200 C 116.838 83.462,119.595 83.600,124.973 83.600 L 133.192 83.600 133.296 103.100 L 133.400 122.600 152.500 122.704 C 165.158 122.773,171.600 122.672,171.600 122.404 C 171.600 122.138,165.187 122.000,152.800 122.000 L 134.000 122.000 134.000 102.880 C 134.000 88.542,133.880 83.640,133.520 83.280 C 132.909 82.669,117.375 82.593,117.000 83.200 M172.200 83.200 C 172.038 83.462,174.796 83.600,180.176 83.600 L 188.400 83.600 188.400 131.024 C 188.400 162.537,188.534 178.364,188.800 178.200 C 189.425 177.814,189.345 83.905,188.720 83.280 C 188.109 82.669,172.575 82.593,172.200 83.200 M204.200 83.200 C 204.036 83.466,217.204 83.600,243.400 83.600 C 269.596 83.600,282.764 83.466,282.600 83.200 C 282.438 82.938,268.937 82.800,243.400 82.800 C 217.863 82.800,204.362 82.938,204.200 83.200 M133.200 159.024 C 133.200 171.871,133.335 178.364,133.600 178.200 C 133.858 178.041,134.000 171.129,134.000 158.776 C 134.000 146.259,133.861 139.600,133.600 139.600 C 133.339 139.600,133.200 146.341,133.200 159.024 M220.400 142.176 C 220.400 142.959,220.580 143.600,220.800 143.600 C 221.020 143.600,221.200 143.071,221.200 142.424 C 221.200 141.777,221.020 141.136,220.800 141.000 C 220.562 140.853,220.400 141.329,220.400 142.176 M266.267 141.867 C 265.848 142.285,265.955 144.000,266.400 144.000 C 266.620 144.000,266.800 143.460,266.800 142.800 C 266.800 141.557,266.719 141.415,266.267 141.867 M203.600 144.776 C 203.600 145.423,203.780 146.064,204.000 146.200 C 204.238 146.347,204.400 145.871,204.400 145.024 C 204.400 144.241,204.220 143.600,204.000 143.600 C 203.780 143.600,203.600 144.129,203.600 144.776 M282.800 145.424 C 282.800 146.004,282.973 146.340,283.200 146.200 C 283.420 146.064,283.600 145.603,283.600 145.176 C 283.600 144.749,283.420 144.400,283.200 144.400 C 282.980 144.400,282.800 144.861,282.800 145.424 M221.200 146.376 C 221.200 146.829,221.380 147.200,221.600 147.200 C 221.820 147.200,222.000 146.941,222.000 146.624 C 222.000 146.307,221.820 145.936,221.600 145.800 C 221.380 145.664,221.200 145.923,221.200 146.376 M204.400 149.376 C 204.400 149.693,204.580 150.064,204.800 150.200 C 205.020 150.336,205.200 150.077,205.200 149.624 C 205.200 149.171,205.020 148.800,204.800 148.800 C 204.580 148.800,204.400 149.059,204.400 149.376 M205.200 152.576 C 205.200 152.893,205.380 153.264,205.600 153.400 C 205.820 153.536,206.000 153.277,206.000 152.824 C 206.000 152.371,205.820 152.000,205.600 152.000 C 205.380 152.000,205.200 152.259,205.200 152.576 M281.492 152.242 C 281.331 152.402,281.200 152.809,281.200 153.147 C 281.200 153.597,281.318 153.642,281.645 153.315 C 281.890 153.070,282.021 152.663,281.937 152.410 C 281.852 152.157,281.652 152.081,281.492 152.242 M250.600 162.400 C 250.464 162.620,250.623 162.800,250.953 162.800 C 251.283 162.800,251.664 162.620,251.800 162.400 C 251.936 162.180,251.777 162.000,251.447 162.000 C 251.117 162.000,250.736 162.180,250.600 162.400 M239.600 163.200 C 239.600 163.440,241.200 163.600,243.600 163.600 C 246.000 163.600,247.600 163.440,247.600 163.200 C 247.600 162.960,246.000 162.800,243.600 162.800 C 241.200 162.800,239.600 162.960,239.600 163.200 M232.200 179.200 C 232.336 179.420,232.797 179.600,233.224 179.600 C 233.651 179.600,234.000 179.420,234.000 179.200 C 234.000 178.980,233.539 178.800,232.976 178.800 C 232.396 178.800,232.060 178.973,232.200 179.200 M253.200 179.200 C 253.200 179.420,253.549 179.600,253.976 179.600 C 254.403 179.600,254.864 179.420,255.000 179.200 C 255.140 178.973,254.804 178.800,254.224 178.800 C 253.661 178.800,253.200 178.980,253.200 179.200 M237.000 180.000 C 237.136 180.220,237.777 180.400,238.424 180.400 C 239.071 180.400,239.600 180.220,239.600 180.000 C 239.600 179.780,238.959 179.600,238.176 179.600 C 237.329 179.600,236.853 179.762,237.000 180.000 M247.600 180.000 C 247.600 180.220,248.129 180.400,248.776 180.400 C 249.423 180.400,250.064 180.220,250.200 180.000 C 250.347 179.762,249.871 179.600,249.024 179.600 C 248.241 179.600,247.600 179.780,247.600 180.000 M153.800 190.400 C 153.656 190.633,154.063 190.800,154.776 190.800 C 155.449 190.800,156.000 190.620,156.000 190.400 C 156.000 190.180,155.561 190.000,155.024 190.000 C 154.487 190.000,153.936 190.180,153.800 190.400 M169.200 190.400 C 169.200 190.620,169.661 190.800,170.224 190.800 C 170.804 190.800,171.140 190.627,171.000 190.400 C 170.864 190.180,170.403 190.000,169.976 190.000 C 169.549 190.000,169.200 190.180,169.200 190.400 M241.800 190.400 C 241.660 190.627,241.996 190.800,242.576 190.800 C 243.139 190.800,243.600 190.620,243.600 190.400 C 243.600 190.180,243.251 190.000,242.824 190.000 C 242.397 190.000,241.936 190.180,241.800 190.400 M254.800 190.400 C 254.800 190.620,255.261 190.800,255.824 190.800 C 256.404 190.800,256.740 190.627,256.600 190.400 C 256.464 190.180,256.003 190.000,255.576 190.000 C 255.149 190.000,254.800 190.180,254.800 190.400 M173.600 191.200 C 173.600 191.420,173.971 191.600,174.424 191.600 C 174.877 191.600,175.136 191.420,175.000 191.200 C 174.864 190.980,174.493 190.800,174.176 190.800 C 173.859 190.800,173.600 190.980,173.600 191.200 M238.600 191.200 C 238.464 191.420,238.723 191.600,239.176 191.600 C 239.629 191.600,240.000 191.420,240.000 191.200 C 240.000 190.980,239.741 190.800,239.424 190.800 C 239.107 190.800,238.736 190.980,238.600 191.200 M258.400 191.200 C 258.400 191.420,258.771 191.600,259.224 191.600 C 259.677 191.600,259.936 191.420,259.800 191.200 C 259.664 190.980,259.293 190.800,258.976 190.800 C 258.659 190.800,258.400 190.980,258.400 191.200 M236.200 192.000 C 236.064 192.220,236.323 192.400,236.776 192.400 C 237.229 192.400,237.600 192.220,237.600 192.000 C 237.600 191.780,237.341 191.600,237.024 191.600 C 236.707 191.600,236.336 191.780,236.200 192.000 M145.000 192.800 C 144.864 193.020,145.123 193.200,145.576 193.200 C 146.029 193.200,146.400 193.020,146.400 192.800 C 146.400 192.580,146.141 192.400,145.824 192.400 C 145.507 192.400,145.136 192.580,145.000 192.800 M156.600 207.200 C 156.456 207.433,156.855 207.600,157.553 207.600 C 158.213 207.600,158.864 207.420,159.000 207.200 C 159.144 206.967,158.745 206.800,158.047 206.800 C 157.387 206.800,156.736 206.980,156.600 207.200 M165.800 207.200 C 165.936 207.420,166.487 207.600,167.024 207.600 C 167.561 207.600,168.000 207.420,168.000 207.200 C 168.000 206.980,167.449 206.800,166.776 206.800 C 166.063 206.800,165.656 206.967,165.800 207.200 M255.400 208.000 C 255.536 208.220,255.907 208.400,256.224 208.400 C 256.541 208.400,256.800 208.220,256.800 208.000 C 256.800 207.780,256.429 207.600,255.976 207.600 C 255.523 207.600,255.264 207.780,255.400 208.000 M282.000 211.753 C 282.000 212.083,282.180 212.464,282.400 212.600 C 282.620 212.736,282.800 212.577,282.800 212.247 C 282.800 211.917,282.620 211.536,282.400 211.400 C 282.180 211.264,282.000 211.423,282.000 211.753 M283.600 216.776 C 283.600 217.229,283.780 217.600,284.000 217.600 C 284.220 217.600,284.400 217.341,284.400 217.024 C 284.400 216.707,284.220 216.336,284.000 216.200 C 283.780 216.064,283.600 216.323,283.600 216.776 M214.212 217.317 C 214.041 217.712,214.013 218.147,214.151 218.284 C 214.557 218.690,214.884 218.120,214.697 217.331 C 214.532 216.633,214.510 216.632,214.212 217.317 M266.800 219.753 C 266.800 220.083,266.980 220.464,267.200 220.600 C 267.420 220.736,267.600 220.577,267.600 220.247 C 267.600 219.917,267.420 219.536,267.200 219.400 C 266.980 219.264,266.800 219.423,266.800 219.753 M284.400 221.553 C 284.400 222.433,284.580 223.264,284.800 223.400 C 285.041 223.549,285.200 223.012,285.200 222.047 C 285.200 221.167,285.020 220.336,284.800 220.200 C 284.559 220.051,284.400 220.588,284.400 221.553 M213.467 221.067 C 213.037 221.496,213.159 229.128,213.600 229.400 C 213.857 229.559,214.000 228.071,214.000 225.224 C 214.000 220.808,213.969 220.565,213.467 221.067 M267.600 225.624 C 267.600 227.404,267.748 228.356,268.000 228.200 C 268.220 228.064,268.400 226.793,268.400 225.376 C 268.400 223.925,268.225 222.800,268.000 222.800 C 267.771 222.800,267.600 224.008,267.600 225.624 M230.000 225.600 C 230.000 226.260,230.180 226.800,230.400 226.800 C 230.620 226.800,230.800 226.260,230.800 225.600 C 230.800 224.940,230.620 224.400,230.400 224.400 C 230.180 224.400,230.000 224.940,230.000 225.600 M284.700 227.829 C 284.535 227.996,284.400 228.859,284.400 229.747 C 284.400 230.891,284.524 231.236,284.827 230.933 C 285.062 230.698,285.197 229.835,285.127 229.015 C 285.057 228.195,284.865 227.661,284.700 227.829 M230.800 230.376 C 230.800 230.829,230.980 231.200,231.200 231.200 C 231.420 231.200,231.600 230.941,231.600 230.624 C 231.600 230.307,231.420 229.936,231.200 229.800 C 230.980 229.664,230.800 229.923,230.800 230.376 M115.100 230.629 C 114.935 230.796,114.800 231.389,114.800 231.947 C 114.800 232.675,114.922 232.838,115.234 232.526 C 115.472 232.288,115.607 231.694,115.534 231.208 C 115.460 230.722,115.265 230.461,115.100 230.629 M170.800 232.000 C 170.800 232.260,176.341 232.400,186.624 232.400 C 197.071 232.400,202.363 232.264,202.200 232.000 C 202.042 231.744,196.329 231.600,186.376 231.600 C 176.259 231.600,170.800 231.740,170.800 232.000 M214.000 233.376 C 214.000 233.693,214.180 234.064,214.400 234.200 C 214.620 234.336,214.800 234.077,214.800 233.624 C 214.800 233.171,214.620 232.800,214.400 232.800 C 214.180 232.800,214.000 233.059,214.000 233.376 M131.600 234.624 C 131.600 235.471,131.762 235.947,132.000 235.800 C 132.220 235.664,132.400 235.023,132.400 234.376 C 132.400 233.729,132.220 233.200,132.000 233.200 C 131.780 233.200,131.600 233.841,131.600 234.624 M131.600 243.976 C 131.600 244.869,131.780 245.600,132.000 245.600 C 132.220 245.600,132.400 244.981,132.400 244.224 C 132.400 243.467,132.220 242.736,132.000 242.600 C 131.758 242.451,131.600 242.996,131.600 243.976 M244.800 244.000 C 244.800 244.220,245.351 244.400,246.024 244.400 C 246.737 244.400,247.144 244.233,247.000 244.000 C 246.864 243.780,246.313 243.600,245.776 243.600 C 245.239 243.600,244.800 243.780,244.800 244.000 M251.400 244.000 C 251.256 244.233,251.663 244.400,252.376 244.400 C 253.049 244.400,253.600 244.220,253.600 244.000 C 253.600 243.780,253.161 243.600,252.624 243.600 C 252.087 243.600,251.536 243.780,251.400 244.000 M114.800 247.376 C 114.800 247.913,114.980 248.464,115.200 248.600 C 115.433 248.744,115.600 248.337,115.600 247.624 C 115.600 246.951,115.420 246.400,115.200 246.400 C 114.980 246.400,114.800 246.839,114.800 247.376 M132.400 248.976 C 132.400 249.539,132.580 250.000,132.800 250.000 C 133.020 250.000,133.200 249.651,133.200 249.224 C 133.200 248.797,133.020 248.336,132.800 248.200 C 132.573 248.060,132.400 248.396,132.400 248.976 M185.200 254.600 C 185.200 258.733,185.349 261.200,185.600 261.200 C 185.851 261.200,186.000 258.733,186.000 254.600 C 186.000 250.467,185.851 248.000,185.600 248.000 C 185.349 248.000,185.200 250.467,185.200 254.600 M133.200 251.976 C 133.200 252.429,133.380 252.800,133.600 252.800 C 133.820 252.800,134.000 252.541,134.000 252.224 C 134.000 251.907,133.820 251.536,133.600 251.400 C 133.380 251.264,133.200 251.523,133.200 251.976 M117.200 258.176 C 117.200 258.493,117.380 258.864,117.600 259.000 C 117.820 259.136,118.000 258.877,118.000 258.424 C 118.000 257.971,117.820 257.600,117.600 257.600 C 117.380 257.600,117.200 257.859,117.200 258.176 M242.600 260.800 C 242.736 261.020,243.197 261.200,243.624 261.200 C 244.051 261.200,244.400 261.020,244.400 260.800 C 244.400 260.580,243.939 260.400,243.376 260.400 C 242.796 260.400,242.460 260.573,242.600 260.800 M254.200 260.800 C 254.064 261.020,254.313 261.200,254.753 261.200 C 255.193 261.200,255.664 261.020,255.800 260.800 C 255.936 260.580,255.687 260.400,255.247 260.400 C 254.807 260.400,254.336 260.580,254.200 260.800 M150.400 269.600 C 150.400 269.820,150.771 270.000,151.224 270.000 C 151.677 270.000,151.936 269.820,151.800 269.600 C 151.664 269.380,151.293 269.200,150.976 269.200 C 150.659 269.200,150.400 269.380,150.400 269.600 M153.200 270.400 C 153.200 270.620,153.661 270.800,154.224 270.800 C 154.804 270.800,155.140 270.627,155.000 270.400 C 154.864 270.180,154.403 270.000,153.976 270.000 C 153.549 270.000,153.200 270.180,153.200 270.400 M280.400 278.400 C 280.400 283.663,280.538 286.362,280.800 286.200 C 281.044 286.049,281.200 283.004,281.200 278.400 C 281.200 273.796,281.044 270.751,280.800 270.600 C 280.538 270.438,280.400 273.137,280.400 278.400 M158.000 271.200 C 158.000 271.441,159.667 271.600,162.200 271.600 C 164.733 271.600,166.400 271.441,166.400 271.200 C 166.400 270.959,164.733 270.800,162.200 270.800 C 159.667 270.800,158.000 270.959,158.000 271.200 M186.800 281.753 C 186.800 282.743,186.980 283.664,187.200 283.800 C 187.444 283.951,187.600 283.345,187.600 282.247 C 187.600 281.257,187.420 280.336,187.200 280.200 C 186.956 280.049,186.800 280.655,186.800 281.753 M143.400 285.600 C 143.536 285.820,143.917 286.000,144.247 286.000 C 144.577 286.000,144.736 285.820,144.600 285.600 C 144.464 285.380,144.083 285.200,143.753 285.200 C 143.423 285.200,143.264 285.380,143.400 285.600 M145.800 286.400 C 145.936 286.620,146.317 286.800,146.647 286.800 C 146.977 286.800,147.136 286.620,147.000 286.400 C 146.864 286.180,146.483 286.000,146.153 286.000 C 145.823 286.000,145.664 286.180,145.800 286.400 M149.000 287.200 C 149.136 287.420,149.507 287.600,149.824 287.600 C 150.141 287.600,150.400 287.420,150.400 287.200 C 150.400 286.980,150.029 286.800,149.576 286.800 C 149.123 286.800,148.864 286.980,149.000 287.200 M170.800 287.200 C 170.800 287.420,171.149 287.600,171.576 287.600 C 172.003 287.600,172.464 287.420,172.600 287.200 C 172.740 286.973,172.404 286.800,171.824 286.800 C 171.261 286.800,170.800 286.980,170.800 287.200 M153.800 288.000 C 153.936 288.220,154.497 288.400,155.047 288.400 C 155.612 288.400,155.940 288.226,155.800 288.000 C 155.664 287.780,155.103 287.600,154.553 287.600 C 153.988 287.600,153.660 287.774,153.800 288.000 M165.600 288.000 C 165.600 288.220,166.219 288.400,166.976 288.400 C 167.733 288.400,168.464 288.220,168.600 288.000 C 168.749 287.758,168.204 287.600,167.224 287.600 C 166.331 287.600,165.600 287.780,165.600 288.000 " stroke="none" fill="#88aaad" fill-rule="evenodd"></path><path id="path1" d="M117.600 130.776 C 117.600 162.030,117.465 177.636,117.193 177.804 C 115.987 178.550,117.978 178.800,125.124 178.800 L 133.000 178.800 132.889 158.931 C 132.801 143.146,132.883 138.994,133.289 138.737 C 134.497 137.970,171.426 138.345,172.138 139.131 C 172.928 140.005,173.175 177.321,172.393 177.804 C 171.183 178.552,173.189 178.800,180.466 178.800 C 187.615 178.800,188.459 178.731,188.243 178.167 C 188.109 177.819,188.000 156.489,188.000 130.767 L 188.000 84.000 180.404 84.000 L 172.808 84.000 172.704 103.500 L 172.600 123.000 152.700 123.104 L 132.800 123.207 132.800 103.604 L 132.800 84.000 125.200 84.000 L 117.600 84.000 117.600 130.776 M204.705 115.300 C 204.617 141.478,204.691 146.713,205.154 147.291 C 205.506 147.730,205.626 148.483,205.484 149.360 C 205.319 150.378,205.421 150.799,205.875 150.973 C 206.297 151.135,206.435 151.579,206.316 152.389 C 206.208 153.126,206.339 153.644,206.665 153.770 C 206.965 153.885,207.078 154.252,206.931 154.634 C 206.774 155.046,206.935 155.444,207.356 155.679 C 207.795 155.925,207.949 156.331,207.791 156.830 C 207.653 157.262,207.734 157.600,207.973 157.600 C 208.208 157.600,208.400 158.050,208.400 158.600 C 208.400 159.150,208.580 159.600,208.800 159.600 C 209.020 159.600,209.200 159.851,209.200 160.157 C 209.200 160.464,209.467 160.817,209.793 160.942 C 210.120 161.067,210.293 161.413,210.179 161.711 C 209.932 162.355,210.963 164.503,211.339 164.127 C 211.483 163.984,211.600 164.171,211.600 164.543 C 211.600 164.915,212.045 165.389,212.589 165.596 C 213.168 165.816,213.691 166.422,213.850 167.058 C 214.150 168.253,217.276 171.600,218.093 171.600 C 218.376 171.600,218.818 171.938,219.076 172.350 C 219.334 172.763,220.187 173.221,220.972 173.368 C 221.832 173.530,222.400 173.868,222.400 174.218 C 222.400 174.538,222.760 174.800,223.200 174.800 C 223.640 174.800,224.000 174.980,224.000 175.200 C 224.000 175.420,224.360 175.600,224.800 175.600 C 225.240 175.600,225.600 175.780,225.600 176.000 C 225.600 176.220,225.960 176.400,226.400 176.400 C 226.840 176.400,227.200 176.583,227.200 176.808 C 227.200 177.043,227.623 177.109,228.200 176.964 C 228.971 176.771,229.200 176.868,229.200 177.388 C 229.200 177.930,229.437 178.012,230.400 177.800 C 231.313 177.600,231.600 177.679,231.600 178.130 C 231.600 178.592,231.955 178.676,233.196 178.510 C 234.175 178.378,235.022 178.486,235.387 178.789 C 236.298 179.546,251.514 179.601,251.803 178.849 C 251.956 178.449,252.508 178.353,253.807 178.500 C 255.203 178.657,255.600 178.573,255.600 178.119 C 255.600 177.686,255.894 177.601,256.749 177.789 C 257.601 177.976,257.963 177.873,258.147 177.393 C 258.315 176.957,258.658 176.828,259.198 176.999 C 259.659 177.146,260.000 177.072,260.000 176.827 C 260.000 176.592,260.450 176.400,261.000 176.400 C 261.550 176.400,262.000 176.220,262.000 176.000 C 262.000 175.780,262.360 175.600,262.800 175.600 C 263.240 175.600,263.600 175.420,263.600 175.200 C 263.600 174.980,263.851 174.800,264.157 174.800 C 264.464 174.800,264.823 174.518,264.955 174.172 C 265.106 173.779,265.470 173.632,265.931 173.778 C 266.455 173.944,266.797 173.725,267.120 173.017 C 267.369 172.470,268.060 171.900,268.656 171.750 C 269.712 171.485,274.053 167.517,273.955 166.907 C 273.825 166.102,274.049 165.600,274.538 165.600 C 275.451 165.600,276.389 164.243,276.138 163.285 C 275.970 162.641,276.083 162.400,276.553 162.400 C 276.909 162.400,277.200 162.117,277.200 161.771 C 277.200 161.137,278.176 159.909,278.457 160.190 C 278.540 160.273,278.815 159.905,279.067 159.370 C 279.319 158.836,279.362 158.500,279.163 158.623 C 278.963 158.746,278.800 158.657,278.800 158.424 C 278.800 158.191,278.980 158.000,279.200 158.000 C 279.420 158.000,279.600 157.550,279.600 157.000 C 279.600 156.450,279.755 156.000,279.945 156.000 C 280.134 156.000,280.203 155.552,280.099 155.005 C 279.975 154.354,280.117 153.930,280.510 153.779 C 280.877 153.638,281.031 153.241,280.906 152.761 C 280.792 152.328,280.994 151.649,281.353 151.252 C 281.796 150.762,281.930 150.149,281.769 149.343 C 281.610 148.549,281.725 147.994,282.117 147.669 C 282.621 147.250,282.713 142.787,282.773 115.591 L 282.844 84.000 243.827 84.000 L 204.810 84.000 204.705 115.300 M266.943 122.250 C 266.899 139.837,266.770 145.371,266.400 145.600 C 266.083 145.796,266.010 146.335,266.189 147.150 C 266.412 148.167,266.337 148.400,265.785 148.400 C 265.280 148.400,265.166 148.628,265.341 149.295 C 265.512 149.951,265.285 150.439,264.487 151.124 C 263.889 151.638,263.625 151.944,263.900 151.805 C 264.726 151.388,264.463 152.168,263.594 152.711 C 263.013 153.074,262.854 153.476,263.025 154.156 C 263.218 154.926,263.073 155.145,262.231 155.357 C 261.557 155.526,261.200 155.890,261.200 156.408 C 261.200 156.843,261.016 157.200,260.790 157.200 C 260.565 157.200,260.208 157.654,259.997 158.209 C 259.740 158.883,259.202 159.300,258.375 159.465 C 257.694 159.601,256.927 160.047,256.672 160.456 C 256.417 160.865,255.891 161.200,255.504 161.200 C 255.117 161.200,254.800 161.380,254.800 161.600 C 254.800 161.820,254.609 162.000,254.376 162.000 C 254.143 162.000,254.088 161.775,254.253 161.500 C 254.618 160.892,253.193 161.953,252.562 162.759 C 252.280 163.119,251.762 163.227,251.108 163.063 C 250.438 162.895,249.923 163.011,249.597 163.404 C 248.853 164.300,238.727 164.270,237.826 163.369 C 237.385 162.928,236.833 162.817,235.997 163.001 C 235.132 163.191,234.737 163.101,234.574 162.676 C 234.449 162.350,234.033 162.171,233.640 162.274 C 233.185 162.393,232.684 162.083,232.243 161.410 C 231.759 160.670,231.333 160.431,230.802 160.599 C 230.276 160.766,229.902 160.563,229.561 159.927 C 228.875 158.646,228.161 158.000,227.429 158.000 C 227.083 158.000,226.800 157.717,226.800 157.371 C 226.800 156.649,226.156 155.926,224.928 155.268 C 224.358 154.964,224.140 154.553,224.274 154.039 C 224.412 153.509,224.142 153.049,223.408 152.569 C 222.701 152.105,222.406 151.622,222.533 151.135 C 222.653 150.676,222.511 150.400,222.155 150.400 C 221.755 150.400,221.656 150.117,221.822 149.454 C 221.991 148.783,221.862 148.433,221.379 148.247 C 220.854 148.046,220.749 147.672,220.920 146.617 C 221.049 145.820,220.967 145.189,220.722 145.107 C 220.437 145.012,220.286 137.659,220.251 122.084 L 220.200 99.200 243.600 99.200 L 267.000 99.200 266.943 122.250 M158.400 190.659 C 157.720 191.054,156.672 191.182,155.127 191.060 C 153.391 190.923,152.802 191.018,152.633 191.460 C 152.471 191.881,152.045 191.970,151.061 191.785 C 150.007 191.587,149.655 191.681,149.451 192.212 C 149.272 192.677,148.883 192.833,148.215 192.705 C 147.593 192.586,147.159 192.731,147.015 193.105 C 146.871 193.479,146.437 193.624,145.815 193.505 C 145.226 193.392,144.759 193.530,144.635 193.853 C 144.522 194.146,144.153 194.280,143.815 194.150 C 143.477 194.021,143.200 194.114,143.200 194.357 C 143.200 194.601,142.750 194.800,142.200 194.800 C 141.650 194.800,141.200 194.980,141.200 195.200 C 141.200 195.420,140.840 195.600,140.400 195.600 C 139.960 195.600,139.600 195.780,139.600 196.000 C 139.600 196.220,139.330 196.400,139.000 196.400 C 138.670 196.400,138.400 196.690,138.400 197.043 C 138.400 197.531,138.156 197.626,137.394 197.434 C 136.572 197.228,136.318 197.364,136.008 198.180 C 135.778 198.785,135.190 199.282,134.514 199.443 C 133.209 199.753,132.000 200.710,132.000 201.433 C 132.000 202.111,130.073 203.600,129.196 203.600 C 128.742 203.600,128.416 204.019,128.259 204.807 C 128.109 205.554,127.672 206.147,127.109 206.364 C 125.915 206.825,124.400 208.610,124.400 209.556 C 124.400 209.970,124.041 210.400,123.600 210.516 C 123.066 210.655,122.800 211.062,122.800 211.736 C 122.800 212.395,122.522 212.834,121.999 213.000 C 121.384 213.195,121.255 213.480,121.443 214.227 C 121.621 214.937,121.523 215.200,121.081 215.200 C 120.672 215.200,120.543 215.460,120.684 216.000 C 120.826 216.541,120.696 216.800,120.284 216.800 C 119.881 216.800,119.743 217.059,119.875 217.566 C 120.005 218.063,119.794 218.482,119.274 218.761 C 118.735 219.049,118.541 219.454,118.683 219.995 C 118.799 220.438,118.717 220.800,118.502 220.800 C 118.287 220.800,118.197 221.250,118.302 221.800 C 118.445 222.549,118.323 222.800,117.815 222.800 C 117.278 222.800,117.188 223.036,117.386 223.936 C 117.558 224.719,117.441 225.234,117.010 225.592 C 116.561 225.965,116.455 226.488,116.636 227.451 C 116.813 228.396,116.727 228.853,116.344 229.000 C 115.942 229.154,115.795 230.168,115.781 232.877 C 115.768 235.366,115.608 236.597,115.281 236.706 C 114.646 236.918,114.641 241.281,115.275 241.915 C 115.570 242.210,115.760 243.799,115.775 246.095 C 115.792 248.560,115.974 249.984,116.321 250.349 C 116.645 250.691,116.746 251.334,116.590 252.047 C 116.418 252.830,116.538 253.395,116.969 253.826 C 117.380 254.237,117.514 254.804,117.352 255.449 C 117.177 256.146,117.314 256.596,117.814 256.961 C 118.276 257.298,118.446 257.781,118.300 258.340 C 118.176 258.813,118.238 259.200,118.437 259.200 C 118.637 259.200,118.800 259.631,118.800 260.157 C 118.800 260.684,119.090 261.226,119.445 261.362 C 119.855 261.519,120.015 261.901,119.883 262.405 C 119.745 262.933,119.873 263.200,120.264 263.200 C 120.672 263.200,120.776 263.447,120.600 264.000 C 120.415 264.583,120.528 264.800,121.016 264.800 C 121.530 264.800,121.629 265.032,121.438 265.793 C 121.253 266.530,121.396 266.916,121.994 267.289 C 122.437 267.566,122.800 268.099,122.800 268.474 C 122.800 268.848,123.138 269.392,123.552 269.682 C 123.966 269.971,124.372 270.559,124.454 270.987 C 124.537 271.415,125.863 272.822,127.402 274.114 C 128.941 275.405,130.315 276.763,130.456 277.131 C 130.782 277.983,132.649 279.600,133.307 279.600 C 133.582 279.600,134.032 279.960,134.307 280.400 C 134.582 280.840,135.178 281.200,135.632 281.200 C 136.405 281.200,137.731 282.128,137.421 282.452 C 137.344 282.534,138.071 282.985,139.037 283.457 C 140.003 283.928,140.694 284.153,140.573 283.957 C 140.452 283.760,140.543 283.600,140.776 283.600 C 141.009 283.600,141.200 283.780,141.200 284.000 C 141.200 284.220,141.650 284.400,142.200 284.400 C 142.750 284.400,143.200 284.555,143.200 284.745 C 143.200 284.934,143.648 285.003,144.195 284.899 C 144.830 284.778,145.270 284.917,145.410 285.283 C 145.556 285.663,146.029 285.798,146.811 285.684 C 147.621 285.565,148.065 285.703,148.227 286.125 C 148.397 286.570,148.821 286.681,149.762 286.529 C 150.568 286.398,151.277 286.523,151.630 286.859 C 152.459 287.646,168.743 287.644,169.572 286.857 C 169.941 286.506,170.683 286.386,171.672 286.519 C 172.848 286.677,173.200 286.587,173.200 286.130 C 173.200 285.679,173.487 285.600,174.400 285.800 C 175.365 286.012,175.600 285.931,175.600 285.385 C 175.600 284.877,175.851 284.755,176.600 284.898 C 177.289 285.030,177.600 284.911,177.600 284.518 C 177.600 284.128,177.855 284.027,178.400 284.200 C 178.983 284.385,179.200 284.272,179.200 283.784 C 179.200 283.270,179.432 283.171,180.193 283.362 C 180.930 283.547,181.316 283.404,181.689 282.806 C 181.966 282.363,182.514 282.000,182.906 282.000 C 183.299 282.000,183.791 281.551,184.000 281.000 C 184.209 280.450,184.557 280.000,184.774 280.000 C 184.990 280.000,185.606 279.528,186.141 278.950 C 187.695 277.275,188.139 277.987,187.902 281.779 C 187.604 286.550,187.370 286.400,195.144 286.400 L 201.600 286.400 201.600 259.600 L 201.600 232.800 186.200 232.800 C 175.628 232.800,170.800 232.667,170.800 232.376 C 170.800 232.143,170.620 232.064,170.400 232.200 C 170.156 232.351,170.000 235.396,170.000 240.000 C 170.000 246.847,170.256 248.804,170.996 247.607 C 171.152 247.354,174.123 247.200,178.824 247.200 L 186.400 247.200 186.400 254.400 C 186.400 260.483,186.308 261.600,185.809 261.600 C 185.484 261.600,184.196 262.590,182.947 263.800 C 181.698 265.010,180.435 266.000,180.141 266.000 C 179.847 266.000,179.382 266.360,179.107 266.800 C 178.832 267.240,178.400 267.600,178.147 267.600 C 177.893 267.600,177.583 267.867,177.458 268.193 C 177.333 268.520,176.977 268.689,176.667 268.570 C 176.357 268.451,176.001 268.620,175.876 268.946 C 175.741 269.298,175.337 269.456,174.880 269.337 C 174.404 269.212,174.016 269.380,173.864 269.778 C 173.692 270.225,173.328 270.347,172.663 270.180 C 172.006 270.015,171.634 270.135,171.469 270.563 C 171.295 271.017,170.906 271.121,170.033 270.947 C 169.210 270.782,168.633 270.909,168.189 271.354 C 167.311 272.232,156.727 272.316,155.919 271.451 C 155.584 271.093,154.887 270.972,153.910 271.103 C 152.821 271.249,152.353 271.142,152.187 270.711 C 152.041 270.331,151.610 270.185,150.985 270.305 C 150.345 270.427,149.928 270.278,149.772 269.871 C 149.636 269.516,149.274 269.350,148.928 269.483 C 148.557 269.625,147.938 269.266,147.332 268.558 C 146.788 267.921,146.456 267.625,146.595 267.900 C 147.021 268.745,146.226 268.453,145.668 267.561 C 145.326 267.013,144.874 266.792,144.367 266.925 C 143.846 267.061,143.438 266.845,143.132 266.272 C 142.613 265.302,141.780 264.400,141.405 264.400 C 141.266 264.400,141.275 264.598,141.425 264.840 C 141.621 265.158,141.474 265.161,140.891 264.849 C 139.692 264.207,138.000 262.048,138.000 261.159 C 138.000 260.703,137.599 260.228,137.032 260.012 C 136.328 259.745,136.120 259.427,136.271 258.850 C 136.409 258.324,136.196 257.879,135.639 257.532 C 134.747 256.974,134.455 256.179,135.300 256.605 C 135.575 256.744,135.279 256.412,134.642 255.868 C 133.934 255.262,133.575 254.643,133.717 254.272 C 133.850 253.926,133.684 253.564,133.329 253.428 C 132.922 253.272,132.773 252.855,132.895 252.215 C 133.015 251.590,132.869 251.159,132.489 251.013 C 132.052 250.845,131.952 250.376,132.107 249.220 C 132.243 248.201,132.149 247.589,131.838 247.470 C 131.098 247.186,131.214 231.686,131.960 231.225 C 132.331 230.995,132.419 230.532,132.234 229.792 C 132.025 228.961,132.161 228.509,132.800 227.914 C 133.460 227.299,133.541 227.010,133.175 226.570 C 132.813 226.134,132.847 225.957,133.330 225.772 C 133.684 225.636,133.850 225.274,133.717 224.928 C 133.575 224.557,133.934 223.938,134.642 223.332 C 135.279 222.788,135.575 222.456,135.300 222.595 C 134.455 223.021,134.747 222.226,135.639 221.668 C 136.196 221.321,136.409 220.876,136.271 220.350 C 136.123 219.782,136.323 219.457,136.975 219.209 C 137.552 218.990,137.979 218.407,138.135 217.625 C 138.295 216.827,138.718 216.259,139.327 216.028 C 139.846 215.830,140.738 215.113,141.310 214.434 C 141.881 213.755,142.565 213.200,142.831 213.200 C 143.096 213.200,143.829 212.660,144.460 212.000 C 145.091 211.340,145.785 210.800,146.003 210.800 C 146.222 210.800,146.400 210.620,146.400 210.400 C 146.400 210.180,146.741 210.000,147.157 210.000 C 147.574 210.000,148.013 209.744,148.133 209.431 C 148.266 209.083,148.671 208.946,149.176 209.078 C 149.774 209.234,150.000 209.103,150.000 208.600 C 150.000 208.080,150.245 207.954,150.980 208.094 C 151.605 208.214,152.041 208.070,152.184 207.698 C 152.340 207.291,152.722 207.194,153.451 207.377 C 154.158 207.555,154.732 207.424,155.232 206.971 C 155.836 206.424,156.434 206.353,158.546 206.579 C 160.349 206.773,161.364 206.704,161.929 206.352 C 162.567 205.953,162.858 205.951,163.327 206.339 C 163.742 206.684,164.706 206.750,166.551 206.561 C 168.825 206.328,169.219 206.385,169.448 206.980 C 169.655 207.519,170.002 207.614,171.056 207.416 C 172.143 207.212,172.400 207.291,172.400 207.829 C 172.400 208.320,172.633 208.432,173.295 208.259 C 173.951 208.088,174.439 208.315,175.124 209.113 C 175.638 209.711,175.944 209.975,175.805 209.700 C 175.666 209.425,175.743 209.200,175.976 209.200 C 176.209 209.200,176.400 209.380,176.400 209.600 C 176.400 209.820,176.717 210.000,177.104 210.000 C 177.491 210.000,178.043 210.378,178.332 210.839 C 178.680 211.397,179.123 211.609,179.652 211.470 C 180.169 211.335,180.533 211.497,180.689 211.931 C 181.028 212.878,182.259 214.000,182.960 214.000 C 183.286 214.000,183.664 214.180,183.800 214.400 C 183.936 214.620,184.397 214.800,184.824 214.800 C 185.251 214.800,185.600 214.982,185.600 215.204 C 185.600 215.426,187.850 213.358,190.600 210.608 C 196.136 205.072,196.579 204.143,194.618 202.182 C 193.562 201.126,192.980 200.889,193.431 201.700 C 193.584 201.975,192.999 201.435,192.131 200.500 C 191.262 199.565,190.291 198.800,189.972 198.800 C 189.653 198.800,189.157 198.422,188.868 197.961 C 188.544 197.442,188.067 197.194,187.618 197.311 C 186.991 197.475,185.440 196.306,185.792 195.934 C 185.862 195.860,185.129 195.415,184.163 194.943 C 183.197 194.472,182.506 194.247,182.627 194.443 C 182.748 194.640,182.676 194.800,182.466 194.800 C 182.257 194.800,181.987 194.544,181.867 194.231 C 181.734 193.883,181.329 193.746,180.824 193.878 C 180.335 194.006,180.000 193.901,180.000 193.620 C 180.000 193.328,179.692 193.244,179.198 193.401 C 178.658 193.572,178.315 193.443,178.147 193.007 C 177.963 192.527,177.601 192.424,176.749 192.611 C 175.878 192.803,175.600 192.717,175.600 192.257 C 175.600 191.794,175.287 191.701,174.281 191.864 C 173.374 192.011,172.803 191.886,172.451 191.462 C 172.064 190.996,171.468 190.901,170.012 191.073 C 168.653 191.234,167.701 191.110,166.781 190.651 C 165.112 189.818,159.839 189.823,158.400 190.659 M245.902 190.495 C 245.798 190.807,244.933 190.992,243.568 190.995 C 242.193 190.998,241.240 191.204,240.963 191.559 C 240.700 191.894,240.109 192.038,239.483 191.918 C 238.794 191.786,238.364 191.917,238.215 192.305 C 238.071 192.679,237.637 192.824,237.015 192.705 C 236.426 192.592,235.959 192.730,235.835 193.053 C 235.722 193.346,235.377 193.489,235.067 193.370 C 234.757 193.251,234.397 193.431,234.267 193.770 C 234.137 194.109,233.777 194.289,233.467 194.170 C 233.157 194.051,232.801 194.220,232.676 194.546 C 232.538 194.907,232.138 195.057,231.652 194.930 C 231.123 194.791,230.680 195.003,230.332 195.561 C 230.043 196.022,229.486 196.400,229.094 196.400 C 228.701 196.400,228.211 196.845,228.004 197.389 C 227.784 197.968,227.178 198.491,226.542 198.650 C 225.945 198.800,224.678 199.700,223.728 200.651 C 222.004 202.375,221.553 203.084,222.500 202.582 C 222.775 202.436,222.231 203.032,221.292 203.905 C 220.132 204.983,219.664 205.701,219.833 206.143 C 219.987 206.543,219.836 206.888,219.442 207.039 C 219.089 207.175,218.800 207.462,218.800 207.679 C 218.800 207.895,218.395 208.429,217.900 208.866 C 217.405 209.303,217.225 209.547,217.500 209.407 C 217.775 209.267,218.000 209.343,218.000 209.576 C 218.000 209.809,217.820 210.000,217.600 210.000 C 217.380 210.000,217.200 210.360,217.200 210.800 C 217.200 211.240,217.000 211.600,216.757 211.600 C 216.482 211.600,216.410 211.985,216.566 212.609 C 216.747 213.330,216.637 213.688,216.180 213.863 C 215.735 214.034,215.613 214.399,215.780 215.063 C 215.940 215.699,215.826 216.092,215.440 216.240 C 215.025 216.399,214.923 216.850,215.082 217.828 C 215.212 218.628,215.104 219.434,214.821 219.775 C 214.095 220.650,214.028 230.419,214.743 231.172 C 215.091 231.538,215.214 232.282,215.085 233.245 C 214.941 234.316,215.046 234.809,215.451 234.964 C 215.827 235.108,215.938 235.507,215.780 236.137 C 215.612 236.809,215.735 237.166,216.198 237.344 C 216.642 237.514,216.773 237.856,216.601 238.398 C 216.454 238.859,216.528 239.200,216.773 239.200 C 217.008 239.200,217.200 239.650,217.200 240.200 C 217.200 240.750,217.380 241.200,217.600 241.200 C 217.820 241.200,218.000 241.470,218.000 241.800 C 218.000 242.130,218.180 242.400,218.400 242.400 C 218.620 242.400,218.800 242.848,218.800 243.397 C 218.800 243.960,219.148 244.610,219.600 244.893 C 220.040 245.168,220.400 245.714,220.400 246.106 C 220.400 246.499,220.832 246.984,221.360 247.185 C 222.397 247.579,223.600 249.047,223.600 249.918 C 223.600 250.468,224.539 251.600,224.995 251.600 C 225.134 251.600,225.114 251.385,224.951 251.121 C 224.789 250.858,225.228 251.050,225.928 251.549 C 226.627 252.047,227.200 252.672,227.200 252.938 C 227.200 253.677,228.801 254.885,229.450 254.636 C 229.804 254.500,230.197 254.794,230.473 255.400 C 230.823 256.169,231.128 256.333,231.861 256.149 C 232.537 255.979,232.800 256.083,232.800 256.519 C 232.800 256.928,233.060 257.057,233.600 256.916 C 234.141 256.774,234.400 256.904,234.400 257.316 C 234.400 257.727,234.659 257.857,235.195 257.717 C 235.709 257.583,236.082 257.748,236.249 258.184 C 236.434 258.664,236.784 258.790,237.463 258.620 C 238.123 258.454,238.492 258.575,238.660 259.011 C 238.837 259.473,239.208 259.574,240.051 259.389 C 240.829 259.218,241.267 259.308,241.405 259.668 C 241.549 260.044,242.507 260.205,244.677 260.217 C 246.704 260.229,247.799 260.398,247.906 260.717 C 248.117 261.351,250.101 261.339,250.740 260.700 C 251.044 260.396,252.328 260.200,254.016 260.200 C 255.922 260.200,256.854 260.037,256.990 259.681 C 257.128 259.323,257.609 259.241,258.539 259.415 C 259.542 259.603,259.948 259.513,260.120 259.065 C 260.259 258.703,260.658 258.542,261.120 258.663 C 261.602 258.789,261.984 258.618,262.143 258.205 C 262.308 257.775,262.659 257.628,263.151 257.784 C 263.626 257.935,263.991 257.799,264.137 257.419 C 264.265 257.086,264.623 256.911,264.933 257.030 C 265.243 257.149,265.599 256.980,265.724 256.654 C 265.862 256.293,266.262 256.143,266.748 256.270 C 267.277 256.409,267.720 256.197,268.068 255.639 C 268.357 255.178,268.914 254.800,269.306 254.800 C 269.699 254.800,270.189 254.355,270.396 253.811 C 270.616 253.232,271.222 252.709,271.858 252.550 C 272.970 252.271,276.400 249.147,276.400 248.414 C 276.400 248.190,276.961 247.471,277.647 246.815 C 278.333 246.159,278.799 245.374,278.682 245.070 C 278.566 244.766,278.814 244.223,279.235 243.863 C 279.656 243.503,280.001 243.341,280.002 243.504 C 280.003 243.667,280.470 242.900,281.041 241.800 C 281.612 240.700,282.073 239.305,282.066 238.700 C 282.059 238.095,282.205 237.600,282.389 237.600 C 282.574 237.600,282.624 237.213,282.500 236.740 C 282.354 236.181,282.524 235.698,282.986 235.361 C 283.503 234.983,283.625 234.552,283.431 233.782 C 283.282 233.189,283.360 232.489,283.608 232.190 C 284.315 231.339,284.351 219.266,283.648 218.997 C 283.254 218.846,283.158 218.331,283.310 217.193 C 283.478 215.943,283.393 215.600,282.919 215.600 C 282.476 215.600,282.379 215.337,282.559 214.621 C 282.730 213.940,282.603 213.530,282.142 213.272 C 281.714 213.032,281.559 212.601,281.703 212.051 C 281.858 211.458,281.740 211.200,281.316 211.200 C 280.904 211.200,280.774 210.941,280.916 210.400 C 281.057 209.860,280.928 209.600,280.519 209.600 C 280.074 209.600,279.979 209.337,280.162 208.607 C 280.347 207.870,280.204 207.484,279.606 207.111 C 279.163 206.834,278.800 206.286,278.800 205.894 C 278.800 205.493,278.344 205.007,277.759 204.785 C 277.059 204.518,276.796 204.188,276.955 203.774 C 277.200 203.135,272.466 198.000,271.632 198.000 C 271.398 198.000,270.699 197.468,270.077 196.818 C 269.261 195.964,268.706 195.700,268.074 195.865 C 267.442 196.030,267.200 195.915,267.200 195.447 C 267.200 195.091,266.930 194.800,266.600 194.800 C 266.270 194.800,266.000 194.620,266.000 194.400 C 266.000 194.180,265.550 194.000,265.000 194.000 C 264.450 194.000,264.000 193.820,264.000 193.600 C 264.000 193.380,263.640 193.200,263.200 193.200 C 262.760 193.200,262.400 193.045,262.400 192.855 C 262.400 192.666,261.950 192.597,261.400 192.702 C 260.680 192.840,260.400 192.719,260.400 192.272 C 260.400 191.786,260.097 191.699,259.007 191.876 C 257.978 192.043,257.553 191.943,257.380 191.493 C 257.205 191.036,256.753 190.936,255.582 191.093 C 254.515 191.236,253.700 191.096,253.023 190.652 C 251.783 189.839,246.161 189.716,245.902 190.495 M250.600 206.234 C 251.380 206.644,252.310 206.784,253.258 206.634 C 254.291 206.471,254.777 206.564,254.926 206.953 C 255.060 207.300,255.515 207.429,256.168 207.304 C 256.933 207.158,257.200 207.274,257.200 207.753 C 257.200 208.109,257.517 208.400,257.904 208.400 C 258.291 208.400,258.817 208.735,259.072 209.144 C 259.327 209.553,260.094 209.999,260.775 210.135 C 261.571 210.294,262.141 210.718,262.370 211.321 C 262.566 211.838,263.188 212.562,263.751 212.931 C 264.314 213.300,264.683 213.839,264.572 214.130 C 264.456 214.430,264.804 214.856,265.377 215.117 C 266.036 215.417,266.303 215.787,266.149 216.188 C 265.996 216.587,266.147 216.800,266.584 216.800 C 267.058 216.800,267.184 217.020,267.015 217.553 C 266.860 218.042,267.007 218.394,267.437 218.559 C 267.924 218.746,268.037 219.116,267.866 219.970 C 267.705 220.777,267.811 221.195,268.217 221.351 C 269.098 221.689,269.063 229.524,268.179 229.863 C 267.727 230.037,267.627 230.414,267.811 231.251 C 267.999 232.107,267.896 232.465,267.409 232.652 C 267.049 232.790,266.851 233.157,266.970 233.467 C 267.089 233.777,266.920 234.133,266.593 234.258 C 266.267 234.383,266.000 234.814,266.000 235.216 C 266.000 235.617,265.640 236.060,265.200 236.200 C 264.760 236.340,264.400 236.788,264.400 237.196 C 264.400 238.351,262.464 240.400,261.372 240.400 C 260.677 240.400,260.344 240.682,260.156 241.433 C 259.965 242.194,259.699 242.415,259.148 242.271 C 258.737 242.163,258.399 242.283,258.397 242.537 C 258.393 243.157,256.492 244.010,255.751 243.726 C 255.427 243.602,254.927 243.820,254.640 244.212 C 254.212 244.798,253.776 244.878,252.201 244.662 C 250.906 244.485,250.086 244.562,249.676 244.900 C 249.190 245.301,249.036 245.298,248.896 244.884 C 248.768 244.502,248.130 244.436,246.422 244.629 C 244.465 244.851,244.080 244.787,243.856 244.202 C 243.664 243.700,243.324 243.583,242.596 243.765 C 241.884 243.944,241.600 243.853,241.600 243.445 C 241.600 243.072,241.324 242.947,240.800 243.084 C 240.229 243.234,240.000 243.096,240.000 242.604 C 240.000 242.158,239.790 241.995,239.406 242.142 C 239.046 242.280,238.627 242.025,238.343 241.493 C 237.625 240.152,236.888 239.549,236.128 239.680 C 235.667 239.760,235.300 239.402,235.020 238.600 C 234.790 237.940,234.286 237.051,233.901 236.625 C 233.515 236.198,233.200 235.615,233.200 235.328 C 233.200 235.041,232.840 234.582,232.400 234.307 C 231.960 234.032,231.600 233.510,231.600 233.147 C 231.600 232.783,231.310 232.374,230.955 232.238 C 230.498 232.063,230.362 231.641,230.487 230.788 C 230.591 230.078,230.446 229.404,230.132 229.143 C 229.319 228.469,229.406 222.652,230.240 221.817 C 230.661 221.396,230.795 220.834,230.631 220.179 C 230.456 219.485,230.565 219.112,230.990 218.948 C 231.326 218.820,231.600 218.284,231.600 217.757 C 231.600 217.231,231.780 216.800,232.000 216.800 C 232.220 216.800,232.400 216.622,232.400 216.403 C 232.400 216.185,232.940 215.491,233.600 214.860 C 234.260 214.229,234.800 213.516,234.800 213.275 C 234.800 212.637,236.738 210.800,237.411 210.800 C 237.726 210.800,238.101 210.336,238.243 209.769 C 238.454 208.929,238.674 208.782,239.439 208.974 C 240.148 209.152,240.535 208.966,241.032 208.208 C 241.518 207.465,241.921 207.265,242.590 207.433 C 243.174 207.580,243.570 207.454,243.716 207.075 C 243.884 206.636,244.394 206.543,245.770 206.698 C 246.919 206.827,247.600 206.747,247.600 206.481 C 247.600 206.125,248.013 205.910,249.200 205.649 C 249.310 205.625,249.940 205.888,250.600 206.234 M217.473 270.660 C 216.964 271.169,217.157 285.797,217.680 286.320 C 218.512 287.152,280.563 287.001,280.243 286.167 C 280.109 285.819,280.000 282.309,280.000 278.367 L 280.000 271.200 249.280 271.200 C 228.998 271.200,218.422 271.062,218.153 270.793 C 217.930 270.570,217.624 270.510,217.473 270.660 " stroke="none" fill="#fbf4f4" fill-rule="evenodd"></path><path id="path2" d="M132.985 102.800 C 132.985 113.470,133.037 117.835,133.100 112.500 C 133.163 107.165,133.163 98.435,133.100 93.100 C 133.037 87.765,132.985 92.130,132.985 102.800 M188.193 130.400 C 188.193 156.250,188.241 166.825,188.300 153.900 C 188.358 140.975,188.358 119.825,188.300 106.900 C 188.241 93.975,188.193 104.550,188.193 130.400 M220.400 100.000 C 220.400 100.262,228.400 100.400,243.600 100.400 C 258.800 100.400,266.800 100.262,266.800 100.000 C 266.800 99.738,258.800 99.600,243.600 99.600 C 228.400 99.600,220.400 99.738,220.400 100.000 M132.983 139.700 C 132.878 139.975,132.840 148.570,132.900 158.800 L 133.008 177.400 133.104 158.533 C 133.179 143.887,133.312 139.622,133.700 139.465 C 134.092 139.307,134.089 139.256,133.687 139.232 C 133.406 139.214,133.089 139.425,132.983 139.700 M242.100 163.891 C 242.925 163.978,244.275 163.978,245.100 163.891 C 245.925 163.805,245.250 163.734,243.600 163.734 C 241.950 163.734,241.275 163.805,242.100 163.891 M239.600 180.000 C 239.600 180.220,239.960 180.400,240.400 180.400 C 240.840 180.400,241.200 180.220,241.200 180.000 C 241.200 179.780,240.840 179.600,240.400 179.600 C 239.960 179.600,239.600 179.780,239.600 180.000 M246.000 180.000 C 246.000 180.220,246.360 180.400,246.800 180.400 C 247.240 180.400,247.600 180.220,247.600 180.000 C 247.600 179.780,247.240 179.600,246.800 179.600 C 246.360 179.600,246.000 179.780,246.000 180.000 M284.400 225.557 C 284.400 226.969,284.559 227.949,284.768 227.820 C 285.195 227.556,285.135 223.802,284.697 223.363 C 284.533 223.200,284.400 224.187,284.400 225.557 M268.501 225.400 C 268.505 226.280,268.587 226.593,268.683 226.095 C 268.779 225.598,268.775 224.878,268.675 224.495 C 268.575 224.113,268.496 224.520,268.501 225.400 M170.800 248.000 C 170.800 248.525,184.787 248.525,185.600 248.000 C 185.999 247.742,183.619 247.610,178.500 247.606 C 173.629 247.602,170.800 247.747,170.800 248.000 M186.162 254.600 C 186.162 258.120,186.224 259.506,186.298 257.681 C 186.372 255.856,186.372 252.976,186.297 251.281 C 186.222 249.586,186.161 251.080,186.162 254.600 M280.167 278.200 C 280.167 282.380,280.226 284.036,280.298 281.879 C 280.371 279.723,280.370 276.303,280.298 274.279 C 280.225 272.256,280.166 274.020,280.167 278.200 M160.711 271.893 C 161.651 271.978,163.091 271.977,163.911 271.891 C 164.730 271.805,163.960 271.736,162.200 271.737 C 160.440 271.739,159.770 271.809,160.711 271.893 M186.993 279.210 C 187.073 280.297,187.600 280.714,187.600 279.690 C 187.600 279.227,187.451 278.755,187.268 278.642 C 187.086 278.529,186.962 278.785,186.993 279.210 M188.600 287.200 C 188.748 287.439,191.396 287.600,195.200 287.600 C 199.004 287.600,201.652 287.439,201.800 287.200 C 201.961 286.939,199.663 286.800,195.200 286.800 C 190.737 286.800,188.439 286.939,188.600 287.200 M155.800 288.000 C 155.936 288.220,156.307 288.400,156.624 288.400 C 156.941 288.400,157.200 288.220,157.200 288.000 C 157.200 287.780,156.829 287.600,156.376 287.600 C 155.923 287.600,155.664 287.780,155.800 288.000 " stroke="none" fill="#a9c4c4" fill-rule="evenodd"></path><path id="path3" d="M117.198 83.700 C 117.007 95.201,117.097 177.600,117.300 177.600 C 117.465 177.600,117.600 156.544,117.600 130.809 L 117.600 84.018 125.100 83.899 L 132.600 83.781 124.900 83.691 C 120.665 83.641,117.199 83.645,117.198 83.700 M171.907 103.237 L 172.015 122.815 152.407 122.707 C 141.623 122.648,132.800 122.737,132.800 122.904 C 132.800 123.071,141.755 123.161,152.700 123.104 L 172.600 123.000 172.704 103.509 L 172.808 84.018 180.104 83.893 L 187.400 83.769 179.600 83.714 L 171.800 83.660 171.907 103.237 M203.600 112.798 C 203.600 130.682,203.745 142.000,203.975 142.000 C 204.181 142.000,204.422 142.585,204.511 143.300 C 204.599 144.015,204.701 130.965,204.736 114.300 L 204.800 84.000 243.819 84.000 L 282.837 84.000 282.719 114.401 C 282.653 131.122,282.658 144.577,282.729 144.301 C 282.800 144.026,283.029 143.440,283.237 143.000 C 283.467 142.513,283.573 130.765,283.508 113.000 L 283.400 83.800 243.500 83.698 L 203.600 83.596 203.600 112.798 M220.032 99.900 C 220.050 100.318,220.144 100.399,220.265 100.100 C 220.423 99.708,225.468 99.600,243.600 99.600 C 261.732 99.600,266.777 99.708,266.935 100.100 C 267.056 100.399,267.150 100.318,267.168 99.900 C 267.198 99.241,265.822 99.200,243.600 99.200 C 221.378 99.200,220.002 99.241,220.032 99.900 M133.300 138.665 C 133.025 138.776,132.800 139.012,132.800 139.189 C 132.800 139.366,133.025 139.503,133.300 139.493 C 133.575 139.482,142.398 139.502,152.908 139.537 L 172.015 139.600 171.908 158.800 C 171.837 171.470,171.936 177.955,172.200 177.867 C 172.984 177.605,172.928 140.004,172.142 139.136 C 171.497 138.423,134.995 137.981,133.300 138.665 M220.032 143.876 C 220.014 144.358,220.192 144.871,220.427 145.016 C 220.991 145.365,221.502 144.838,220.948 144.478 C 220.713 144.325,220.417 143.930,220.292 143.600 C 220.136 143.192,220.053 143.280,220.032 143.876 M266.846 144.067 C 266.821 144.433,266.575 144.814,266.300 144.912 C 266.025 145.010,265.938 145.238,266.107 145.419 C 266.577 145.922,267.299 144.979,267.084 144.142 C 266.928 143.536,266.884 143.522,266.846 144.067 M204.400 147.351 C 204.400 147.708,204.568 148.000,204.773 148.000 C 204.979 148.000,205.222 148.495,205.313 149.100 C 205.475 150.163,205.482 150.158,205.540 148.949 C 205.573 148.259,205.331 147.474,205.000 147.200 C 204.509 146.792,204.400 146.820,204.400 147.351 M220.892 147.675 C 221.091 148.273,222.000 148.602,222.000 148.076 C 222.000 147.861,221.715 147.576,221.367 147.443 C 220.977 147.293,220.794 147.382,220.892 147.675 M282.095 147.665 C 281.823 147.937,281.614 148.529,281.632 148.980 C 281.654 149.564,281.729 149.628,281.892 149.200 C 282.017 148.870,282.295 148.486,282.509 148.346 C 282.723 148.207,282.828 147.885,282.744 147.631 C 282.631 147.292,282.459 147.301,282.095 147.665 M281.224 151.371 C 280.954 151.696,280.818 152.285,280.921 152.681 C 281.072 153.266,281.116 153.238,281.154 152.533 C 281.179 152.057,281.425 151.586,281.700 151.488 C 281.975 151.390,282.091 151.191,281.957 151.045 C 281.823 150.900,281.493 151.046,281.224 151.371 M280.150 154.187 C 280.026 154.510,280.017 155.005,280.131 155.287 C 280.260 155.609,280.349 155.540,280.368 155.100 C 280.386 154.715,280.580 154.400,280.800 154.400 C 281.020 154.400,281.200 154.220,281.200 154.000 C 281.200 153.385,280.403 153.526,280.150 154.187 M206.800 155.924 C 206.800 156.139,207.085 156.424,207.433 156.557 C 207.823 156.707,208.006 156.618,207.908 156.325 C 207.709 155.727,206.800 155.398,206.800 155.924 M279.600 156.600 C 279.600 156.930,279.780 157.200,280.000 157.200 C 280.220 157.200,280.400 156.930,280.400 156.600 C 280.400 156.270,280.220 156.000,280.000 156.000 C 279.780 156.000,279.600 156.270,279.600 156.600 M207.600 158.200 C 207.600 158.530,207.780 158.800,208.000 158.800 C 208.220 158.800,208.400 158.530,208.400 158.200 C 208.400 157.870,208.220 157.600,208.000 157.600 C 207.780 157.600,207.600 157.870,207.600 158.200 M258.460 158.642 C 258.162 158.978,258.012 159.345,258.125 159.459 C 258.419 159.753,260.000 158.848,260.000 158.386 C 260.000 157.799,259.068 157.954,258.460 158.642 M277.200 161.400 C 277.200 161.730,277.380 162.000,277.600 162.000 C 277.820 162.000,278.000 161.730,278.000 161.400 C 278.000 161.070,277.820 160.800,277.600 160.800 C 277.380 160.800,277.200 161.070,277.200 161.400 M234.500 162.500 C 234.591 162.775,234.999 163.064,235.405 163.143 C 236.083 163.275,236.091 163.234,235.500 162.643 C 234.732 161.875,234.270 161.808,234.500 162.500 M252.400 162.333 C 252.400 162.590,251.995 162.821,251.500 162.846 C 250.759 162.885,250.731 162.927,251.342 163.084 C 252.140 163.289,253.125 162.591,252.673 162.140 C 252.523 161.990,252.400 162.077,252.400 162.333 M237.600 163.192 C 237.600 163.673,239.371 164.156,240.083 163.871 C 240.367 163.757,240.195 163.649,239.700 163.632 C 239.205 163.614,238.800 163.420,238.800 163.200 C 238.800 162.980,238.530 162.800,238.200 162.800 C 237.870 162.800,237.600 162.977,237.600 163.192 M248.800 163.172 C 248.800 163.377,248.395 163.622,247.900 163.718 C 247.093 163.873,247.109 163.897,248.051 163.946 C 248.629 163.975,249.326 163.730,249.600 163.400 C 250.008 162.909,249.980 162.800,249.449 162.800 C 249.092 162.800,248.800 162.967,248.800 163.172 M212.938 166.597 C 213.192 167.145,213.535 167.595,213.700 167.597 C 214.106 167.601,214.077 167.292,213.586 166.374 C 212.975 165.233,212.397 165.432,212.938 166.597 M273.855 166.200 C 273.715 166.565,273.855 166.800,274.213 166.800 C 274.536 166.800,274.800 166.530,274.800 166.200 C 274.800 165.870,274.639 165.600,274.443 165.600 C 274.246 165.600,273.982 165.870,273.855 166.200 M267.777 172.167 C 267.350 172.479,267.136 172.869,267.301 173.034 C 267.465 173.199,267.600 173.123,267.600 172.867 C 267.600 172.610,267.960 172.400,268.400 172.400 C 268.840 172.400,269.200 172.220,269.200 172.000 C 269.200 171.441,268.688 171.501,267.777 172.167 M220.400 173.557 C 220.400 173.801,220.745 174.000,221.167 174.000 C 221.588 174.000,222.024 174.225,222.135 174.500 C 222.256 174.799,222.350 174.718,222.368 174.300 C 222.386 173.915,222.235 173.600,222.033 173.600 C 221.831 173.600,221.381 173.491,221.033 173.357 C 220.685 173.224,220.400 173.314,220.400 173.557 M222.800 175.200 C 222.800 175.420,223.070 175.600,223.400 175.600 C 223.730 175.600,224.000 175.420,224.000 175.200 C 224.000 174.980,223.730 174.800,223.400 174.800 C 223.070 174.800,222.800 174.980,222.800 175.200 M224.400 176.000 C 224.400 176.220,224.670 176.400,225.000 176.400 C 225.330 176.400,225.600 176.220,225.600 176.000 C 225.600 175.780,225.330 175.600,225.000 175.600 C 224.670 175.600,224.400 175.780,224.400 176.000 M226.000 176.800 C 226.000 177.020,226.270 177.200,226.600 177.200 C 226.930 177.200,227.200 177.020,227.200 176.800 C 227.200 176.580,226.930 176.400,226.600 176.400 C 226.270 176.400,226.000 176.580,226.000 176.800 M260.000 176.800 C 260.000 177.020,260.270 177.200,260.600 177.200 C 260.930 177.200,261.200 177.020,261.200 176.800 C 261.200 176.580,260.930 176.400,260.600 176.400 C 260.270 176.400,260.000 176.580,260.000 176.800 M234.100 178.676 C 234.485 178.776,234.800 179.025,234.800 179.229 C 234.800 179.433,235.092 179.600,235.449 179.600 C 235.980 179.600,236.008 179.491,235.600 179.000 C 235.326 178.670,234.719 178.421,234.251 178.446 C 233.575 178.483,233.544 178.530,234.100 178.676 M251.784 178.827 C 251.435 179.391,251.962 179.902,252.322 179.348 C 252.475 179.113,252.870 178.817,253.200 178.692 C 253.608 178.536,253.520 178.453,252.924 178.432 C 252.442 178.414,251.929 178.592,251.784 178.827 M240.100 179.504 C 241.145 179.581,242.000 179.814,242.000 180.022 C 242.000 180.230,242.720 180.400,243.600 180.400 C 244.480 180.400,245.200 180.230,245.200 180.022 C 245.200 179.814,246.055 179.581,247.100 179.504 C 248.145 179.428,246.570 179.365,243.600 179.365 C 240.630 179.365,239.055 179.428,240.100 179.504 M156.800 190.371 C 156.800 190.575,156.485 190.839,156.100 190.958 C 155.715 191.077,156.104 191.097,156.965 191.002 C 158.996 190.778,159.861 190.000,158.080 190.000 C 157.376 190.000,156.800 190.167,156.800 190.371 M166.255 190.415 C 166.483 190.643,167.374 190.928,168.235 191.050 L 169.800 191.271 168.654 190.635 C 167.346 189.910,165.588 189.748,166.255 190.415 M244.400 190.400 C 244.400 190.620,244.100 190.800,243.733 190.800 C 243.367 190.800,243.174 190.907,243.305 191.038 C 243.652 191.385,246.000 190.802,246.000 190.368 C 246.000 190.166,245.640 190.000,245.200 190.000 C 244.760 190.000,244.400 190.180,244.400 190.400 M252.976 190.613 C 253.404 190.936,254.394 191.171,255.176 191.136 L 256.600 191.072 255.300 190.911 C 254.585 190.822,254.000 190.581,254.000 190.375 C 254.000 190.169,253.595 190.006,253.100 190.013 C 252.223 190.025,252.219 190.040,252.976 190.613 M151.647 191.455 C 151.169 191.995,151.191 192.060,151.814 191.939 C 152.210 191.863,152.609 191.575,152.700 191.300 C 152.930 190.610,152.316 190.700,151.647 191.455 M240.400 191.172 C 240.400 191.377,239.995 191.630,239.500 191.736 C 238.872 191.869,238.954 191.908,239.769 191.863 C 240.835 191.806,241.841 190.800,240.833 190.800 C 240.595 190.800,240.400 190.967,240.400 191.172 M257.298 191.300 C 257.388 191.575,257.988 191.829,258.631 191.863 C 259.446 191.908,259.528 191.869,258.900 191.736 C 258.405 191.630,258.000 191.377,258.000 191.172 C 258.000 190.967,257.805 190.800,257.567 190.800 C 257.328 190.800,257.207 191.025,257.298 191.300 M149.200 191.933 C 149.200 192.190,148.795 192.421,148.300 192.446 C 147.559 192.485,147.531 192.527,148.142 192.684 C 148.940 192.889,149.925 192.191,149.473 191.740 C 149.323 191.590,149.200 191.677,149.200 191.933 M238.000 191.933 C 238.000 192.190,237.595 192.421,237.100 192.446 C 236.359 192.485,236.331 192.527,236.942 192.684 C 237.740 192.889,238.725 192.191,238.273 191.740 C 238.123 191.590,238.000 191.677,238.000 191.933 M260.406 192.100 C 260.402 192.570,260.695 192.790,261.300 192.768 C 261.901 192.747,262.001 192.661,261.600 192.508 C 261.270 192.383,260.868 192.082,260.706 191.840 C 260.525 191.569,260.410 191.668,260.406 192.100 M146.800 192.733 C 146.800 192.990,146.395 193.221,145.900 193.246 C 145.159 193.285,145.131 193.327,145.742 193.484 C 146.540 193.689,147.525 192.991,147.073 192.540 C 146.923 192.390,146.800 192.477,146.800 192.733 M262.400 192.800 C 262.400 193.020,262.670 193.200,263.000 193.200 C 263.330 193.200,263.600 193.020,263.600 192.800 C 263.600 192.580,263.330 192.400,263.000 192.400 C 262.670 192.400,262.400 192.580,262.400 192.800 M180.000 193.600 C 180.000 193.820,180.270 194.000,180.600 194.000 C 180.930 194.000,181.200 193.820,181.200 193.600 C 181.200 193.380,180.930 193.200,180.600 193.200 C 180.270 193.200,180.000 193.380,180.000 193.600 M264.000 193.600 C 264.000 193.820,264.270 194.000,264.600 194.000 C 264.930 194.000,265.200 193.820,265.200 193.600 C 265.200 193.380,264.930 193.200,264.600 193.200 C 264.270 193.200,264.000 193.380,264.000 193.600 M142.000 194.400 C 142.000 194.620,142.270 194.800,142.600 194.800 C 142.930 194.800,143.200 194.620,143.200 194.400 C 143.200 194.180,142.930 194.000,142.600 194.000 C 142.270 194.000,142.000 194.180,142.000 194.400 M186.477 196.830 C 186.556 197.067,186.791 197.260,187.000 197.260 C 187.209 197.260,187.445 197.067,187.523 196.830 C 187.602 196.594,187.367 196.400,187.000 196.400 C 186.633 196.400,186.398 196.594,186.477 196.830 M227.041 197.667 C 227.155 197.850,226.967 198.000,226.624 198.000 C 226.281 198.000,226.000 198.180,226.000 198.400 C 226.000 198.907,226.259 198.904,227.226 198.386 C 228.140 197.897,228.242 197.333,227.418 197.333 C 227.097 197.333,226.928 197.483,227.041 197.667 M135.600 198.333 C 135.600 198.590,135.240 198.800,134.800 198.800 C 134.360 198.800,134.000 198.980,134.000 199.200 C 134.000 199.759,134.512 199.699,135.423 199.033 C 135.850 198.721,136.064 198.331,135.899 198.166 C 135.735 198.001,135.600 198.077,135.600 198.333 M192.400 200.751 C 192.400 200.944,192.656 201.314,192.969 201.574 C 193.435 201.961,193.498 201.898,193.322 201.223 C 193.112 200.419,192.400 200.055,192.400 200.751 M130.060 202.251 C 129.543 202.802,129.231 203.364,129.366 203.500 C 129.664 203.797,131.684 202.347,131.908 201.676 C 132.183 200.851,131.039 201.207,130.060 202.251 M221.900 202.676 C 221.515 202.776,221.200 203.143,221.200 203.491 C 221.200 204.038,221.309 204.025,222.000 203.400 C 222.680 202.784,223.046 202.286,222.700 202.446 C 222.645 202.472,222.285 202.575,221.900 202.676 M195.600 204.400 C 195.600 204.840,195.780 205.200,196.000 205.200 C 196.220 205.200,196.400 204.840,196.400 204.400 C 196.400 203.960,196.220 203.600,196.000 203.600 C 195.780 203.600,195.600 203.960,195.600 204.400 M276.914 204.142 C 277.126 204.779,277.867 204.885,277.867 204.278 C 277.867 203.978,277.622 203.733,277.322 203.733 C 277.023 203.733,276.839 203.917,276.914 204.142 M127.300 204.998 C 126.705 205.674,126.646 206.400,127.186 206.400 C 127.542 206.400,128.400 205.147,128.400 204.626 C 128.400 204.219,127.810 204.419,127.300 204.998 M248.300 205.880 C 246.913 206.234,247.640 206.800,249.480 206.800 C 250.593 206.800,251.205 206.655,250.980 206.445 C 250.447 205.947,249.129 205.669,248.300 205.880 M161.800 206.400 C 161.659 206.628,162.004 206.800,162.600 206.800 C 163.196 206.800,163.541 206.628,163.400 206.400 C 163.264 206.180,162.904 206.000,162.600 206.000 C 162.296 206.000,161.936 206.180,161.800 206.400 M155.200 207.000 C 154.792 207.491,154.820 207.600,155.351 207.600 C 155.708 207.600,156.000 207.433,156.000 207.229 C 156.000 207.025,156.315 206.776,156.700 206.676 C 157.256 206.530,157.225 206.483,156.549 206.446 C 156.081 206.421,155.474 206.670,155.200 207.000 M168.000 206.692 C 168.330 206.817,168.725 207.113,168.878 207.348 C 169.238 207.902,169.765 207.391,169.416 206.827 C 169.271 206.592,168.758 206.414,168.276 206.432 C 167.680 206.453,167.592 206.536,168.000 206.692 M254.143 207.000 C 254.473 207.330,254.840 207.600,254.959 207.600 C 255.078 207.600,255.071 207.330,254.945 207.000 C 254.818 206.670,254.451 206.400,254.129 206.400 C 253.621 206.400,253.622 206.480,254.143 207.000 M152.184 207.627 C 151.760 208.313,152.139 208.380,152.977 207.767 C 153.626 207.293,153.646 207.200,153.100 207.200 C 152.741 207.200,152.329 207.392,152.184 207.627 M256.000 207.492 C 256.330 207.617,256.732 207.918,256.894 208.160 C 257.075 208.431,257.190 208.332,257.194 207.900 C 257.198 207.430,256.905 207.210,256.300 207.232 C 255.699 207.253,255.599 207.339,256.000 207.492 M150.006 208.700 C 150.010 209.132,150.125 209.231,150.306 208.960 C 150.468 208.718,150.870 208.417,151.200 208.292 C 151.601 208.139,151.501 208.053,150.900 208.032 C 150.295 208.010,150.002 208.230,150.006 208.700 M148.256 209.078 C 147.805 209.528,147.981 210.000,148.600 210.000 C 148.930 210.000,149.200 209.831,149.200 209.624 C 149.200 209.119,148.575 208.758,148.256 209.078 M123.600 209.800 C 123.600 210.130,123.780 210.400,124.000 210.400 C 124.220 210.400,124.400 210.130,124.400 209.800 C 124.400 209.470,124.220 209.200,124.000 209.200 C 123.780 209.200,123.600 209.470,123.600 209.800 M146.400 210.400 C 146.400 210.620,146.670 210.800,147.000 210.800 C 147.330 210.800,147.600 210.620,147.600 210.400 C 147.600 210.180,147.330 210.000,147.000 210.000 C 146.670 210.000,146.400 210.180,146.400 210.400 M260.400 210.400 C 260.400 210.620,260.681 210.800,261.024 210.800 C 261.367 210.800,261.555 210.950,261.441 211.133 C 261.328 211.317,261.497 211.467,261.818 211.467 C 262.642 211.467,262.540 210.903,261.626 210.414 C 260.659 209.896,260.400 209.893,260.400 210.400 M179.856 211.478 C 179.405 211.928,179.581 212.400,180.200 212.400 C 180.530 212.400,180.800 212.231,180.800 212.024 C 180.800 211.519,180.175 211.158,179.856 211.478 M122.000 212.200 C 122.000 212.530,122.180 212.800,122.400 212.800 C 122.620 212.800,122.800 212.530,122.800 212.200 C 122.800 211.870,122.620 211.600,122.400 211.600 C 122.180 211.600,122.000 211.870,122.000 212.200 M281.646 212.257 C 281.621 212.729,281.870 213.218,282.200 213.345 C 282.530 213.471,282.800 213.401,282.800 213.187 C 282.800 212.974,282.633 212.800,282.429 212.800 C 282.225 212.800,281.976 212.485,281.876 212.100 C 281.731 211.548,281.683 211.581,281.646 212.257 M216.000 213.200 C 215.683 213.396,215.556 213.689,215.718 213.852 C 215.881 214.014,216.223 213.937,216.480 213.680 C 217.084 213.076,216.747 212.738,216.000 213.200 M263.600 213.400 C 263.600 213.730,263.892 214.000,264.249 214.000 C 264.780 214.000,264.808 213.891,264.400 213.400 C 264.126 213.070,263.834 212.800,263.751 212.800 C 263.668 212.800,263.600 213.070,263.600 213.400 M182.800 214.229 C 182.800 214.354,183.057 214.714,183.371 215.029 C 184.023 215.681,185.600 215.802,185.600 215.200 C 185.600 214.980,185.251 214.800,184.824 214.800 C 184.397 214.800,183.936 214.620,183.800 214.400 C 183.536 213.973,182.800 213.847,182.800 214.229 M215.200 215.600 C 214.883 215.796,214.756 216.089,214.918 216.252 C 215.081 216.414,215.423 216.337,215.680 216.080 C 216.284 215.476,215.947 215.138,215.200 215.600 M138.382 216.834 C 138.136 217.293,138.031 217.765,138.149 217.882 C 138.426 218.160,139.600 216.985,139.600 216.429 C 139.600 215.705,138.853 215.953,138.382 216.834 M231.600 217.400 C 231.600 217.730,231.780 218.000,232.000 218.000 C 232.220 218.000,232.400 217.730,232.400 217.400 C 232.400 217.070,232.220 216.800,232.000 216.800 C 231.780 216.800,231.600 217.070,231.600 217.400 M214.860 218.100 C 214.827 218.705,214.620 219.200,214.400 219.200 C 214.180 219.200,214.000 219.509,214.000 219.886 C 214.000 220.511,214.056 220.515,214.632 219.940 C 215.022 219.549,215.198 218.868,215.092 218.154 L 214.920 217.000 214.860 218.100 M283.200 218.148 C 283.200 218.806,283.918 219.415,284.274 219.059 C 284.396 218.938,284.204 218.547,283.848 218.190 C 283.288 217.631,283.200 217.625,283.200 218.148 M267.054 218.670 C 267.303 218.851,267.607 219.360,267.728 219.800 C 267.901 220.431,267.932 220.395,267.874 219.631 C 267.833 219.099,267.530 218.590,267.200 218.501 C 266.804 218.394,266.754 218.451,267.054 218.670 M118.000 220.200 C 118.000 220.530,118.180 220.800,118.400 220.800 C 118.620 220.800,118.800 220.530,118.800 220.200 C 118.800 219.870,118.620 219.600,118.400 219.600 C 118.180 219.600,118.000 219.870,118.000 220.200 M118.000 221.767 C 118.000 222.078,117.775 222.424,117.500 222.535 C 117.201 222.656,117.282 222.750,117.700 222.768 C 118.144 222.788,118.400 222.507,118.400 222.000 C 118.400 221.560,118.310 221.200,118.200 221.200 C 118.090 221.200,118.000 221.455,118.000 221.767 M267.860 221.470 C 268.112 221.651,268.411 222.250,268.523 222.800 C 268.699 223.661,268.718 223.638,268.663 222.631 C 268.628 221.971,268.338 221.391,268.000 221.300 C 267.599 221.193,267.552 221.249,267.860 221.470 M229.774 222.559 C 229.642 223.087,229.614 223.942,229.712 224.459 C 229.851 225.189,229.903 225.109,229.946 224.100 C 229.975 223.385,230.180 222.800,230.400 222.800 C 230.620 222.800,230.800 222.530,230.800 222.200 C 230.800 221.241,230.038 221.508,229.774 222.559 M284.144 225.600 C 284.144 227.690,284.212 228.545,284.294 227.500 C 284.376 226.455,284.376 224.745,284.294 223.700 C 284.212 222.655,284.144 223.510,284.144 225.600 M117.232 224.500 C 117.214 224.885,117.020 225.200,116.800 225.200 C 116.580 225.200,116.400 225.419,116.400 225.686 C 116.400 226.000,116.628 225.944,117.046 225.525 C 117.402 225.169,117.596 224.636,117.478 224.339 C 117.331 223.970,117.253 224.021,117.232 224.500 M133.078 225.856 C 132.779 226.155,133.106 226.800,133.557 226.800 C 133.727 226.800,133.867 226.530,133.867 226.200 C 133.867 225.573,133.514 225.419,133.078 225.856 M229.654 227.251 C 229.622 228.111,229.845 228.905,230.200 229.200 C 230.891 229.774,231.098 228.870,230.434 228.180 C 230.232 227.971,229.987 227.350,229.888 226.800 C 229.753 226.047,229.695 226.158,229.654 227.251 M116.446 227.667 C 116.421 228.033,116.175 228.414,115.900 228.512 C 115.625 228.610,115.538 228.838,115.707 229.019 C 116.177 229.522,116.899 228.579,116.684 227.742 C 116.528 227.136,116.484 227.122,116.446 227.667 M268.446 228.220 C 268.421 228.671,268.184 229.256,267.920 229.520 C 267.547 229.893,267.549 230.000,267.933 230.000 C 268.554 230.000,268.925 229.068,268.680 228.123 C 268.519 227.499,268.486 227.513,268.446 228.220 M230.446 230.876 C 230.400 231.947,231.015 232.718,231.515 232.218 C 231.659 232.074,231.578 231.831,231.335 231.678 C 231.092 231.525,230.803 231.040,230.693 230.600 C 230.537 229.975,230.483 230.036,230.446 230.876 M214.000 231.400 C 214.000 231.730,214.180 232.000,214.400 232.000 C 214.620 232.000,214.821 232.495,214.846 233.100 C 214.877 233.834,214.956 233.957,215.082 233.468 C 215.331 232.505,214.890 230.800,214.392 230.800 C 214.177 230.800,214.000 231.070,214.000 231.400 M131.354 231.777 C 131.232 232.094,131.217 232.679,131.320 233.077 C 131.468 233.650,131.517 233.613,131.554 232.900 C 131.579 232.405,131.780 232.000,132.000 232.000 C 132.220 232.000,132.400 231.820,132.400 231.600 C 132.400 230.989,131.604 231.124,131.354 231.777 M267.260 231.866 C 266.962 232.189,266.830 232.564,266.966 232.700 C 267.301 233.034,268.127 232.170,267.945 231.674 C 267.865 231.456,267.557 231.542,267.260 231.866 M283.695 232.065 C 283.423 232.337,283.200 232.807,283.200 233.109 C 283.200 233.538,283.337 233.520,283.832 233.025 C 284.180 232.677,284.403 232.208,284.327 231.981 C 284.241 231.722,284.007 231.753,283.695 232.065 M115.600 232.733 C 115.600 233.210,115.420 233.600,115.200 233.600 C 114.980 233.600,114.800 234.320,114.800 235.200 C 114.800 236.080,114.959 236.800,115.154 236.800 C 115.559 236.800,116.187 232.454,115.833 232.100 C 115.705 231.972,115.600 232.257,115.600 232.733 M201.600 259.467 L 201.600 286.400 195.144 286.400 C 189.476 286.400,188.620 286.315,188.128 285.700 C 187.603 285.044,187.576 285.050,187.689 285.800 C 187.805 286.563,188.160 286.605,195.299 286.709 L 202.789 286.818 202.789 259.675 C 202.789 235.931,202.714 232.533,202.194 232.533 C 201.674 232.533,201.600 235.907,201.600 259.467 M265.200 235.400 C 265.200 235.730,265.380 236.000,265.600 236.000 C 265.820 236.000,266.000 235.730,266.000 235.400 C 266.000 235.070,265.820 234.800,265.600 234.800 C 265.380 234.800,265.200 235.070,265.200 235.400 M282.550 235.787 C 282.426 236.110,282.417 236.605,282.531 236.887 C 282.660 237.209,282.749 237.140,282.768 236.700 C 282.786 236.315,282.980 236.000,283.200 236.000 C 283.420 236.000,283.600 235.820,283.600 235.600 C 283.600 234.985,282.803 235.126,282.550 235.787 M263.380 237.715 C 263.149 237.982,262.839 238.515,262.692 238.900 C 262.545 239.285,262.149 239.600,261.813 239.600 C 261.476 239.600,261.200 239.780,261.200 240.000 C 261.200 240.810,262.358 240.365,263.364 239.169 C 264.391 237.950,264.678 237.186,264.100 237.215 C 263.935 237.224,263.611 237.449,263.380 237.715 M282.000 238.200 C 282.000 238.530,282.180 238.800,282.400 238.800 C 282.620 238.800,282.800 238.530,282.800 238.200 C 282.800 237.870,282.620 237.600,282.400 237.600 C 282.180 237.600,282.000 237.870,282.000 238.200 M234.800 238.324 C 234.800 239.062,235.880 240.118,236.164 239.658 C 236.322 239.403,236.182 238.925,235.854 238.597 C 235.191 237.934,234.800 237.833,234.800 238.324 M216.400 239.800 C 216.400 240.130,216.580 240.400,216.800 240.400 C 217.020 240.400,217.200 240.130,217.200 239.800 C 217.200 239.470,217.020 239.200,216.800 239.200 C 216.580 239.200,216.400 239.470,216.400 239.800 M114.800 243.320 C 114.800 244.354,114.967 245.200,115.172 245.200 C 115.377 245.200,115.635 245.605,115.747 246.100 C 115.858 246.595,115.855 245.920,115.740 244.600 C 115.481 241.621,114.800 240.693,114.800 243.320 M258.000 242.400 C 258.000 242.620,257.659 242.800,257.243 242.800 C 256.826 242.800,256.376 243.085,256.243 243.433 C 256.082 243.851,256.170 243.987,256.500 243.834 C 256.775 243.705,257.315 243.489,257.700 243.354 C 258.313 243.138,258.733 242.000,258.200 242.000 C 258.090 242.000,258.000 242.180,258.000 242.400 M218.000 243.000 C 218.000 243.330,218.180 243.600,218.400 243.600 C 218.620 243.600,218.800 243.330,218.800 243.000 C 218.800 242.670,218.620 242.400,218.400 242.400 C 218.180 242.400,218.000 242.670,218.000 243.000 M243.855 244.200 C 243.982 244.530,244.349 244.800,244.671 244.800 C 245.179 244.800,245.178 244.720,244.657 244.200 C 244.327 243.870,243.960 243.600,243.841 243.600 C 243.722 243.600,243.729 243.870,243.855 244.200 M253.647 244.255 C 253.169 244.795,253.191 244.860,253.814 244.739 C 254.210 244.663,254.609 244.375,254.700 244.100 C 254.930 243.410,254.316 243.500,253.647 244.255 M131.254 245.876 C 131.202 247.112,131.780 247.953,132.315 247.418 C 132.459 247.274,132.375 247.031,132.129 246.878 C 131.882 246.725,131.597 246.150,131.495 245.600 C 131.335 244.739,131.301 244.777,131.254 245.876 M173.600 247.474 C 179.965 247.762,186.401 247.775,186.401 247.500 C 186.400 247.335,182.935 247.235,178.700 247.278 C 174.465 247.321,172.170 247.410,173.600 247.474 M221.590 247.463 C 221.816 247.575,222.000 247.935,222.000 248.262 C 222.000 248.988,223.139 250.194,223.492 249.841 C 223.813 249.520,222.316 247.483,221.666 247.355 C 221.399 247.303,221.365 247.351,221.590 247.463 M132.000 250.148 C 132.000 250.806,132.718 251.415,133.074 251.059 C 133.196 250.938,133.004 250.547,132.648 250.190 C 132.088 249.631,132.000 249.625,132.000 250.148 M115.600 250.400 C 115.600 250.620,115.780 250.800,116.000 250.800 C 116.220 250.800,116.400 251.100,116.400 251.467 C 116.400 251.833,116.506 252.027,116.637 251.897 C 116.970 251.563,116.423 250.000,115.973 250.000 C 115.768 250.000,115.600 250.180,115.600 250.400 M225.081 251.475 C 225.429 252.396,226.218 253.200,226.771 253.200 C 227.564 253.200,227.209 252.461,226.003 251.602 C 224.935 250.842,224.836 250.828,225.081 251.475 M132.926 252.369 C 132.967 252.901,133.270 253.410,133.600 253.499 C 133.996 253.606,134.046 253.549,133.746 253.330 C 133.497 253.149,133.193 252.640,133.072 252.200 C 132.899 251.569,132.868 251.605,132.926 252.369 M271.100 252.832 C 270.023 253.459,270.271 253.985,271.397 253.462 C 271.945 253.208,272.395 252.865,272.397 252.700 C 272.401 252.295,271.943 252.341,271.100 252.832 M116.400 253.951 C 116.400 254.144,116.670 254.526,117.000 254.800 C 117.651 255.341,117.733 255.211,117.357 254.233 C 117.100 253.563,116.400 253.357,116.400 253.951 M229.456 254.678 C 229.005 255.128,229.181 255.600,229.800 255.600 C 230.130 255.600,230.400 255.431,230.400 255.224 C 230.400 254.719,229.775 254.358,229.456 254.678 M117.454 257.070 C 117.703 257.251,118.007 257.760,118.128 258.200 C 118.301 258.831,118.332 258.795,118.274 258.031 C 118.233 257.499,117.930 256.990,117.600 256.901 C 117.204 256.794,117.154 256.851,117.454 257.070 M237.843 258.967 C 237.976 259.315,238.261 259.600,238.476 259.600 C 239.002 259.600,238.673 258.691,238.075 258.492 C 237.782 258.394,237.693 258.577,237.843 258.967 M118.000 259.800 C 118.000 260.130,118.180 260.400,118.400 260.400 C 118.620 260.400,118.800 260.130,118.800 259.800 C 118.800 259.470,118.620 259.200,118.400 259.200 C 118.180 259.200,118.000 259.470,118.000 259.800 M240.590 259.848 C 240.947 260.204,241.338 260.396,241.459 260.274 C 241.815 259.918,241.206 259.200,240.548 259.200 C 240.025 259.200,240.031 259.288,240.590 259.848 M256.984 259.627 C 256.528 260.364,257.132 260.525,257.810 259.848 C 258.369 259.288,258.375 259.200,257.852 259.200 C 257.519 259.200,257.129 259.392,256.984 259.627 M244.500 260.276 C 244.885 260.376,245.200 260.625,245.200 260.829 C 245.200 261.033,245.830 261.200,246.600 261.200 C 248.458 261.200,248.392 260.569,246.500 260.257 C 244.770 259.971,243.384 259.984,244.500 260.276 M251.800 260.285 C 250.260 260.656,250.213 261.200,251.720 261.200 C 252.534 261.200,253.200 261.031,253.200 260.825 C 253.200 260.619,253.785 260.378,254.500 260.289 C 255.643 260.148,255.606 260.126,254.200 260.110 C 253.320 260.101,252.240 260.179,251.800 260.285 M138.000 261.569 C 138.000 262.105,139.958 264.349,140.834 264.818 C 141.968 265.425,141.348 264.121,139.736 262.509 C 138.374 261.148,138.000 260.945,138.000 261.569 M149.701 269.600 C 149.790 269.930,150.299 270.233,150.831 270.274 C 151.595 270.332,151.631 270.301,151.000 270.128 C 150.560 270.007,150.051 269.703,149.870 269.454 C 149.651 269.154,149.594 269.204,149.701 269.600 M152.100 270.500 C 152.191 270.775,152.599 271.064,153.005 271.143 C 153.683 271.275,153.691 271.234,153.100 270.643 C 152.332 269.875,151.870 269.808,152.100 270.500 M218.100 270.500 C 218.231 270.894,224.809 271.000,249.200 271.000 C 273.591 271.000,280.169 270.894,280.300 270.500 C 280.432 270.103,274.036 270.000,249.200 270.000 C 224.364 270.000,217.968 270.103,218.100 270.500 M155.600 271.192 C 155.600 271.690,157.305 272.131,158.268 271.882 C 158.757 271.756,158.634 271.677,157.900 271.646 C 157.295 271.621,156.800 271.420,156.800 271.200 C 156.800 270.980,156.530 270.800,156.200 270.800 C 155.870 270.800,155.600 270.977,155.600 271.192 M167.200 271.200 C 167.200 271.420,166.795 271.614,166.300 271.632 C 165.805 271.649,165.633 271.757,165.917 271.871 C 166.629 272.156,168.400 271.673,168.400 271.192 C 168.400 270.977,168.130 270.800,167.800 270.800 C 167.470 270.800,167.200 270.980,167.200 271.200 M126.800 274.213 C 126.800 274.606,129.568 277.200,129.987 277.200 C 130.791 277.200,130.381 276.519,128.823 275.267 C 127.286 274.032,126.800 273.778,126.800 274.213 M186.337 278.716 C 186.042 279.132,185.395 279.688,184.900 279.951 C 183.878 280.493,183.715 281.067,184.582 281.067 C 184.903 281.067,185.072 280.917,184.959 280.733 C 184.845 280.550,185.005 280.400,185.312 280.400 C 185.620 280.400,186.089 279.923,186.355 279.339 C 186.915 278.110,187.453 278.448,187.724 280.200 C 187.862 281.091,187.896 280.996,187.855 279.831 C 187.793 278.064,187.140 277.584,186.337 278.716 M135.600 281.600 C 135.600 281.820,135.870 282.000,136.200 282.000 C 136.530 282.000,136.800 281.820,136.800 281.600 C 136.800 281.380,136.530 281.200,136.200 281.200 C 135.870 281.200,135.600 281.380,135.600 281.600 M142.000 284.800 C 142.000 285.020,142.270 285.200,142.600 285.200 C 142.930 285.200,143.200 285.020,143.200 284.800 C 143.200 284.580,142.930 284.400,142.600 284.400 C 142.270 284.400,142.000 284.580,142.000 284.800 M144.400 285.339 C 145.498 285.917,145.821 285.882,145.416 285.227 C 145.271 284.992,144.758 284.803,144.276 284.806 C 143.436 284.812,143.441 284.833,144.400 285.339 M175.606 285.500 C 175.610 285.932,175.725 286.031,175.906 285.760 C 176.068 285.518,176.470 285.217,176.800 285.092 C 177.201 284.939,177.101 284.853,176.500 284.832 C 175.895 284.810,175.602 285.030,175.606 285.500 M146.600 285.893 C 147.040 286.003,147.525 286.292,147.678 286.535 C 147.831 286.778,148.074 286.859,148.218 286.715 C 148.718 286.215,147.947 285.600,146.876 285.646 C 146.036 285.683,145.975 285.737,146.600 285.893 M150.000 286.695 C 150.550 286.797,151.125 287.082,151.278 287.329 C 151.431 287.575,151.696 287.637,151.867 287.467 C 152.314 287.020,151.171 286.404,150.000 286.461 L 149.000 286.509 150.000 286.695 M169.700 286.665 C 169.089 286.911,169.036 287.600,169.629 287.600 C 169.864 287.600,170.327 287.330,170.657 287.000 C 171.279 286.378,170.814 286.215,169.700 286.665 M156.700 287.507 C 157.635 287.584,158.400 287.816,158.400 288.023 C 158.400 288.230,159.570 288.400,161.000 288.400 C 162.430 288.400,163.600 288.231,163.600 288.024 C 163.600 287.817,164.275 287.583,165.100 287.503 C 165.925 287.423,163.990 287.360,160.800 287.363 C 157.610 287.366,155.765 287.431,156.700 287.507 " stroke="none" fill="#bacccc" fill-rule="evenodd"></path><path id="path4" d="M116.406 130.700 C 116.402 161.451,116.538 178.000,116.794 178.000 C 117.331 178.000,117.339 84.827,116.802 84.000 C 116.548 83.609,116.410 99.863,116.406 130.700 M171.785 103.000 C 171.785 113.560,171.837 117.823,171.900 112.472 C 171.963 107.122,171.963 98.482,171.900 93.272 C 171.836 88.063,171.785 92.440,171.785 103.000 M171.785 158.600 C 171.785 169.160,171.837 173.423,171.900 168.072 C 171.963 162.722,171.963 154.082,171.900 148.872 C 171.836 143.663,171.785 148.040,171.785 158.600 M179.126 232.700 C 183.376 232.764,190.216 232.764,194.326 232.699 C 198.437 232.634,194.960 232.581,186.600 232.581 C 178.240 232.582,174.877 232.635,179.126 232.700 M157.200 288.000 C 157.200 288.220,157.470 288.400,157.800 288.400 C 158.130 288.400,158.400 288.220,158.400 288.000 C 158.400 287.780,158.130 287.600,157.800 287.600 C 157.470 287.600,157.200 287.780,157.200 288.000 " stroke="none" fill="#b4c4ca" fill-rule="evenodd"></path></g></svg>